<svg fill="none" height="172" viewBox="0 0 453 172" width="453" xmlns="http://www.w3.org/2000/svg"><g fill="#333"><path d="m108.32 126h-22.92v-81.6h19.68c5.76 0 10.84.64 15.24 1.92s7.84 3.48 10.32 6.6c2.56 3.04 3.84 7.28 3.84 12.72 0 4.08-1.2 7.52-3.6 10.32s-5.24 5-8.52 6.6c4.96 1.52 8.96 3.96 12 7.32 3.12 3.36 4.68 7.88 4.68 13.56s-1.4 10.2-4.2 13.56c-2.8 3.28-6.52 5.6-11.16 6.96s-9.76 2.04-15.36 2.04zm-3-75.24h-12.48v29.88h10.92c4.16-.08 8-.52 11.52-1.32 3.52-.88 6.36-2.4 8.52-4.56s3.24-5.16 3.24-9c0-4.16-.92-7.32-2.76-9.48-1.76-2.16-4.28-3.6-7.56-4.32-3.2-.8-7-1.2-11.4-1.2zm4.56 36h-17.04v33h15.72c4.32 0 8.2-.44 11.64-1.32 3.52-.96 6.28-2.6 8.28-4.92 2.08-2.4 3.12-5.68 3.12-9.84 0-6.08-2-10.4-6-12.96-3.92-2.64-9.16-3.96-15.72-3.96z"/><path d="m304.58 126-32.52-40.92-9.72 10.08v30.84h-7.44v-81.6h7.44v41.4l41.52-43.2 4.8 4.56-31.68 32.88 36.48 45.96z"/><path d="m408.593 126h-46.56v-81.6h43.2l.6 5.4h-36.36v31.68h28.8l.6 5.4h-29.4v33.12h38.4z"/></g><path d="m200.697 43-25.697 46.2126h16.82l-3.738 38.7874 24.918-51.7816h-16.664z" stroke="#333" stroke-linecap="round" stroke-miterlimit="16" stroke-width="6"/><path d="m41.5 1.5h410v169h-410z" stroke="#333" stroke-width="3"/><path clip-rule="evenodd" d="m40 20h-40v132h40zm-8 32.9176v-1.86h-16.8l.87-.42 15.93-11.34v-1.23h-20.4v1.89h16.53l-1.77 1.02-14.76 10.71v1.23zm0 12.4479v11.64h-20.4v-10.8l1.35-.15v9.09h7.92v-7.2l1.35-.15v7.35h8.28v-9.6zm0 37.1635v-1.86h-7.92v-3.0901c0-1.42-.22-2.7-.66-3.84-.44-1.16-1.13-2.09-2.07-2.79s-2.14-1.05-3.6-1.05c-1.48 0-2.67.32-3.57.96s-1.55 1.51-1.95 2.61c-.42 1.1-.63 2.36-.63 3.78v5.2801zm-18.81-1.86v-3.4801c0-1.1.14-2.05.42-2.85s.75-1.42 1.41-1.86c.66-.46 1.58-.69 2.76-.69 1.12 0 2.03.26 2.73.78.7.5 1.21 1.18 1.53 2.04.3.86.45 1.83.45 2.91v3.1501zm17.88 29.451c.9-1.42 1.35-3.03 1.35-4.83-.04-1.86-.52-3.51-1.44-4.95-.94-1.44-2.22-2.57-3.84-3.39s-3.45-1.23-5.49-1.23-3.85.41-5.43 1.23c-1.6.8-2.85 1.91-3.75 3.33-.9 1.4-1.35 3.01-1.35 4.83.04 1.84.53 3.48 1.47 4.92s2.22 2.57 3.84 3.39c1.6.82 3.42 1.23 5.46 1.23s3.86-.4 5.46-1.2c1.58-.82 2.82-1.93 3.72-3.33zm-1.47-8.7c.78 1.14 1.17 2.45 1.17 3.93 0 1.42-.38 2.68-1.14 3.78-.78 1.1-1.84 1.97-3.18 2.61-1.34.62-2.87.93-4.59.93-1.76 0-3.32-.32-4.68-.96-1.36-.66-2.43-1.56-3.21-2.7-.78-1.16-1.17-2.47-1.17-3.93 0-1.42.38-2.68 1.14-3.78s1.81-1.96 3.15-2.58c1.34-.64 2.87-.96 4.59-.96 1.76 0 3.33.33 4.71.99 1.36.64 2.43 1.53 3.21 2.67z" fill="#333" fill-rule="evenodd"/></svg>